<svg xmlns="http://www.w3.org/2000/svg" width="512" height="512" fill="none"><style>@media (prefers-color-scheme: dark) { rect { fill: #FCFCF2; } path { fill: #33607C; } }</style><rect width="512" height="512" fill="#171313" rx="44"/><path fill="#eee" d="M413.076 127c0 3.984-.249 7.969-.746 11.953-.249 3.984-.87 7.596-1.865 10.833-10.198 0-17.288 2.865-21.267 8.592-3.731 5.479-4.851 16.187-3.358 32.125l11.939 119.161c1.243 13.448 2.86 23.658 4.85 30.631 1.99 6.724 4.726 11.331 8.208 13.821 3.731 2.242 8.706 3.736 14.925 4.483.995 3.237 1.616 6.848 1.865 10.832.249 3.985.373 8.094.373 12.328-2.736-.249-6.591-.498-11.566-.747-4.726 0-10.073-.125-16.043-.374h-49.623c-6.716.249-13.183.374-19.402.374-5.969.249-10.819.498-14.55.747 0-4.234.248-8.219.745-11.954a76.022 76.022 0 0 1 2.24-10.832c7.71-.996 13.307-2.615 16.789-4.857 3.731-2.49 5.846-6.724 6.343-12.7.497-6.226.124-15.44-1.12-27.643l-12.187-115.237-73.253 182.476c-2.736.996-6.218 1.743-10.447 2.241-3.98.498-7.835.747-11.566.747l-82.642-184.333-10.261 101.406c-1.492 15.44-1.74 27.268-.745 35.486.995 7.969 3.481 13.573 7.461 16.81 3.98 2.988 9.452 4.857 16.416 5.604.995 3.237 1.618 6.972 1.866 11.206.249 3.984.374 7.845.374 11.58-4.726-.498-10.945-.872-18.656-1.121h-36.564c-5.472.249-10.695.374-15.67.374-4.975.249-8.954.498-11.939.747 0-3.735.124-7.596.372-11.58.498-4.234 1.245-7.969 2.24-11.206 6.467-.747 11.69-2.616 15.67-5.604 3.979-3.237 7.213-8.965 9.7-17.183 2.487-8.218 4.353-20.172 5.596-35.86l10.074-110.944c.995-10.708.871-18.801-.372-24.28-.995-5.728-3.483-9.713-7.462-11.954-3.731-2.241-9.079-3.362-16.044-3.362a40.024 40.024 0 0 1-2.239-10.833 180.17 180.17 0 0 1-.373-11.953c3.234.249 7.338.498 12.313.747 4.975 0 10.074.125 15.297.374h26.49a314.072 314.072 0 0 1 14.925-.374c4.974-.249 8.954-.498 11.939-.747l79.812 183.093L330.993 127c3.731.249 8.209.498 13.432.747 5.223 0 10.323.125 15.298.374h25.744c4.974-.249 9.949-.374 14.924-.374 4.975-.249 9.203-.498 12.685-.747Z"/></svg>
